# This file uses centimeters as units for non-parametric coordinates.

mtllib Bottle.mtl
g default
v 0.176777 0.005703 -0.176777
v 0.000000 0.005703 -0.250000
v -0.176777 0.005703 -0.176777
v -0.250000 0.005703 0.000000
v -0.176777 0.005703 0.176777
v 0.000000 0.005703 0.250000
v 0.176777 0.005703 0.176777
v 0.250000 0.005703 0.000000
v 0.353553 0.005703 -0.353553
v 0.000000 0.005703 -0.500000
v -0.353553 0.005703 -0.353553
v -0.500000 0.005703 0.000000
v -0.353553 0.005703 0.353553
v 0.000000 0.005703 0.500000
v 0.353553 0.005703 0.353553
v 0.500000 0.005703 0.000000
v 0.530330 0.005703 -0.530330
v 0.000000 0.005703 -0.750000
v -0.530330 0.005703 -0.530330
v -0.750000 0.005704 0.000000
v -0.530330 0.005704 0.530330
v 0.000000 0.005703 0.750000
v 0.530330 0.005703 0.530330
v 0.750000 0.005703 0.000000
v 0.707107 0.005703 -0.707107
v 0.000000 0.005703 -1.000000
v -0.707107 0.005703 -0.707107
v -1.000000 0.005704 0.000000
v -0.707107 0.005704 0.707107
v 0.000000 0.005703 1.000000
v 0.707107 0.005703 0.707107
v 1.000000 0.005703 0.000000
v 0.707107 3.699826 -0.707107
v -0.000000 3.699826 -1.000000
v -0.707107 3.699826 -0.707107
v -1.000000 3.699826 -0.000000
v -0.707107 3.699826 0.707107
v -0.000000 3.699826 1.000001
v 0.707107 3.699826 0.707107
v 1.000001 3.699826 -0.000000
v 0.618503 4.695462 -0.618503
v -0.000000 4.695462 -0.874694
v -0.618503 4.695462 -0.618503
v -0.874695 4.695462 -0.000000
v -0.618503 4.695462 0.618503
v -0.000000 4.695462 0.874694
v 0.618503 4.695462 0.618503
v 0.874695 4.695462 -0.000000
v 0.241862 5.386519 -0.247359
v 0.000000 5.386519 -0.349818
v -0.241862 5.386519 -0.247359
v -0.342045 5.386519 0.000000
v -0.241862 5.386519 0.247359
v 0.000000 5.386519 0.349818
v 0.241862 5.386519 0.247359
v 0.342045 5.386519 0.000000
v 0.176777 7.050366 -0.176777
v 0.000000 7.050366 -0.250000
v -0.176777 7.050366 -0.176777
v -0.250000 7.050366 0.000000
v -0.176777 7.050366 0.176777
v 0.000000 7.050366 0.250000
v 0.176777 7.050366 0.176777
v 0.250000 7.050366 0.000000
v 0.000000 0.005703 0.000000
vt 0.527621 0.128629
vt 0.500000 0.117188
vt 0.472379 0.128629
vt 0.460938 0.156250
vt 0.472379 0.183871
vt 0.500000 0.195313
vt 0.527621 0.183871
vt 0.539063 0.156250
vt 0.555243 0.101007
vt 0.500000 0.078125
vt 0.444757 0.101007
vt 0.421875 0.156250
vt 0.444757 0.211493
vt 0.500000 0.234375
vt 0.555243 0.211493
vt 0.578125 0.156250
vt 0.582864 0.073386
vt 0.500000 0.039063
vt 0.417136 0.073386
vt 0.382813 0.156250
vt 0.417136 0.239114
vt 0.500000 0.273438
vt 0.582864 0.239114
vt 0.617188 0.156250
vt 0.610485 0.045765
vt 0.500000 0.000000
vt 0.389515 0.045765
vt 0.343750 0.156250
vt 0.389515 0.266735
vt 0.500000 0.312500
vt 0.610485 0.266735
vt 0.656250 0.156250
vt 0.375000 0.312500
vt 0.406250 0.312500
vt 0.437500 0.312500
vt 0.468750 0.312500
vt 0.500000 0.312500
vt 0.531250 0.312500
vt 0.562500 0.312500
vt 0.593750 0.312500
vt 0.625000 0.312500
vt 0.375000 0.688440
vt 0.406250 0.688440
vt 0.437500 0.688440
vt 0.468750 0.688440
vt 0.500000 0.688440
vt 0.531250 0.688440
vt 0.562500 0.688440
vt 0.593750 0.688440
vt 0.625000 0.688440
vt 0.610485 0.733265
vt 0.500000 0.687500
vt 0.389515 0.733265
vt 0.343750 0.843750
vt 0.389515 0.954235
vt 0.500000 1.000000
vt 0.610485 0.954235
vt 0.656250 0.843750
vt 0.582864 0.760886
vt 0.500000 0.726563
vt 0.417136 0.760886
vt 0.382813 0.843750
vt 0.417136 0.926614
vt 0.500000 0.960938
vt 0.582864 0.926614
vt 0.617188 0.843750
vt 0.555243 0.788507
vt 0.500000 0.765625
vt 0.444757 0.788507
vt 0.421875 0.843750
vt 0.444757 0.898993
vt 0.500000 0.921875
vt 0.555243 0.898993
vt 0.578125 0.843750
vt 0.527621 0.816129
vt 0.500000 0.804688
vt 0.472379 0.816129
vt 0.460938 0.843750
vt 0.472379 0.871371
vt 0.500000 0.882813
vt 0.527621 0.871371
vt 0.539063 0.843750
vt 0.500000 0.150000
vn 0.000000 -1.000000 0.000000
vn 0.000000 -1.000000 0.000000
vn 0.000000 -1.000000 0.000000
vn 0.000000 -1.000000 0.000000
vn 0.000000 -1.000000 0.000000
vn -0.000001 -1.000000 0.000000
vn 0.000000 -1.000000 0.000000
vn -0.000001 -1.000000 0.000000
vn 0.000000 -1.000000 0.000000
vn -0.000001 -1.000000 0.000001
vn 0.000000 -1.000000 0.000000
vn -0.000000 -1.000000 0.000000
vn 0.000000 -1.000000 -0.000000
vn 0.000000 -1.000000 -0.000000
vn 0.000000 -1.000000 -0.000000
vn 0.000000 -1.000000 -0.000000
vn 0.000000 -1.000000 0.000000
vn 0.000000 -1.000000 0.000000
vn -0.000000 -1.000000 0.000000
vn -0.000001 -1.000000 0.000000
vn -0.000001 -1.000000 0.000000
vn -0.000000 -1.000000 0.000000
vn 0.000000 -1.000000 0.000000
vn 0.000000 -1.000000 0.000000
vn 0.000000 -1.000000 0.000000
vn 0.000000 -1.000000 0.000000
vn -0.000000 -1.000000 0.000000
vn -0.000000 -1.000000 0.000000
vn -0.000000 -1.000000 -0.000000
vn -0.000000 -1.000000 -0.000000
vn 0.000000 -1.000000 0.000000
vn 0.000000 -1.000000 0.000000
vn 0.382684 -0.000000 -0.923879
vn 0.382684 -0.000000 -0.923879
vn 0.382684 -0.000000 -0.923879
vn 0.382684 -0.000000 -0.923879
vn -0.382684 -0.000000 -0.923879
vn -0.382684 -0.000000 -0.923879
vn -0.382684 -0.000000 -0.923879
vn -0.382684 -0.000000 -0.923879
vn -0.923880 -0.000000 -0.382684
vn -0.923880 -0.000000 -0.382684
vn -0.923880 -0.000000 -0.382684
vn -0.923880 -0.000000 -0.382684
vn -0.923880 -0.000000 0.382684
vn -0.923880 -0.000000 0.382684
vn -0.923880 -0.000000 0.382684
vn -0.923880 -0.000000 0.382684
vn -0.382684 -0.000000 0.923879
vn -0.382684 -0.000000 0.923879
vn -0.382684 -0.000000 0.923879
vn -0.382684 -0.000000 0.923879
vn 0.382684 -0.000000 0.923879
vn 0.382684 -0.000000 0.923879
vn 0.382684 -0.000000 0.923879
vn 0.382684 -0.000000 0.923879
vn 0.923879 -0.000000 0.382684
vn 0.923879 -0.000000 0.382684
vn 0.923879 -0.000000 0.382684
vn 0.923879 -0.000000 0.382684
vn 0.923879 -0.000000 -0.382684
vn 0.923879 -0.000000 -0.382684
vn 0.923879 -0.000000 -0.382684
vn 0.923879 -0.000000 -0.382684
vn 0.701572 0.124870 -0.701573
vn 0.000000 0.124870 -0.992173
vn -0.000000 0.285911 -0.958256
vn 0.678195 0.286958 -0.676540
vn -0.701572 0.124870 -0.701573
vn -0.678195 0.286958 -0.676540
vn -0.992173 0.124869 0.000000
vn -0.957632 0.287994 0.000000
vn -0.701572 0.124870 0.701572
vn -0.678195 0.286958 0.676540
vn -0.000000 0.124870 0.992173
vn -0.000000 0.285912 0.958256
vn 0.701572 0.124870 0.701572
vn 0.678195 0.286958 0.676540
vn 0.992173 0.124869 0.000000
vn 0.957632 0.287994 0.000000
vn -0.000000 0.379572 -0.925162
vn 0.657240 0.379299 -0.651282
vn -0.657240 0.379299 -0.651282
vn -0.925383 0.379033 0.000000
vn -0.657240 0.379299 0.651282
vn -0.000000 0.379572 0.925162
vn 0.657240 0.379299 0.651282
vn 0.925383 0.379033 -0.000000
vn 0.000000 0.059310 -0.998240
vn 0.710917 0.057542 -0.700918
vn -0.710917 0.057542 -0.700918
vn -0.998442 0.055804 0.000000
vn -0.710917 0.057542 0.700918
vn -0.000000 0.059310 0.998240
vn 0.710917 0.057542 0.700918
vn 0.998442 0.055804 -0.000000
vn 0.000000 -1.000000 0.000000
s 1
g pCylinder1
usemtl initialShadingGroup
f 1/1/1 2/2/2 10/10/3 9/9/4
f 2/2/2 3/3/5 11/11/6 10/10/3
f 3/3/5 4/4/7 12/12/8 11/11/6
f 4/4/7 5/5/9 13/13/10 12/12/8
f 5/5/9 6/6/11 14/14/12 13/13/10
f 6/6/11 7/7/13 15/15/14 14/14/12
f 7/7/13 8/8/15 16/16/16 15/15/14
f 8/8/15 1/1/1 9/9/4 16/16/16
f 9/9/4 10/10/3 18/18/17 17/17/18
f 10/10/3 11/11/6 19/19/19 18/18/17
f 11/11/6 12/12/8 20/20/20 19/19/19
f 12/12/8 13/13/10 21/21/21 20/20/20
f 13/13/10 14/14/12 22/22/22 21/21/21
f 14/14/12 15/15/14 23/23/23 22/22/22
f 15/15/14 16/16/16 24/24/24 23/23/23
f 16/16/16 9/9/4 17/17/18 24/24/24
f 17/17/18 18/18/17 26/26/25 25/25/26
f 18/18/17 19/19/19 27/27/27 26/26/25
f 19/19/19 20/20/20 28/28/28 27/27/27
f 20/20/20 21/21/21 29/29/29 28/28/28
f 21/21/21 22/22/22 30/30/30 29/29/29
f 22/22/22 23/23/23 31/31/31 30/30/30
f 23/23/23 24/24/24 32/32/32 31/31/31
f 24/24/24 17/17/18 25/25/26 32/32/32
s off
f 25/33/33 26/34/34 34/43/35 33/42/36
f 26/34/37 27/35/38 35/44/39 34/43/40
f 27/35/41 28/36/42 36/45/43 35/44/44
f 28/36/45 29/37/46 37/46/47 36/45/48
f 29/37/49 30/38/50 38/47/51 37/46/52
f 30/38/53 31/39/54 39/48/55 38/47/56
f 31/39/57 32/40/58 40/49/59 39/48/60
f 32/40/61 25/41/62 33/50/63 40/49/64
s 2
f 33/57/65 34/56/66 42/64/67 41/65/68
f 34/56/66 35/55/69 43/63/70 42/64/67
f 35/55/69 36/54/71 44/62/72 43/63/70
f 36/54/71 37/53/73 45/61/74 44/62/72
f 37/53/73 38/52/75 46/60/76 45/61/74
f 38/52/75 39/51/77 47/59/78 46/60/76
f 39/51/77 40/58/79 48/66/80 47/59/78
f 40/58/79 33/57/65 41/65/68 48/66/80
f 41/65/68 42/64/67 50/72/81 49/73/82
f 42/64/67 43/63/70 51/71/83 50/72/81
f 43/63/70 44/62/72 52/70/84 51/71/83
f 44/62/72 45/61/74 53/69/85 52/70/84
f 45/61/74 46/60/76 54/68/86 53/69/85
f 46/60/76 47/59/78 55/67/87 54/68/86
f 47/59/78 48/66/80 56/74/88 55/67/87
f 48/66/80 41/65/68 49/73/82 56/74/88
f 49/73/82 50/72/81 58/80/89 57/81/90
f 50/72/81 51/71/83 59/79/91 58/80/89
f 51/71/83 52/70/84 60/78/92 59/79/91
f 52/70/84 53/69/85 61/77/93 60/78/92
f 53/69/85 54/68/86 62/76/94 61/77/93
f 54/68/86 55/67/87 63/75/95 62/76/94
f 55/67/87 56/74/88 64/82/96 63/75/95
f 56/74/88 49/73/82 57/81/90 64/82/96
s 1
f 2/2/2 1/1/1 65/83/97
f 3/3/5 2/2/2 65/83/97
f 4/4/7 3/3/5 65/83/97
f 5/5/9 4/4/7 65/83/97
f 6/6/11 5/5/9 65/83/97
f 7/7/13 6/6/11 65/83/97
f 8/8/15 7/7/13 65/83/97
f 1/1/1 8/8/15 65/83/97
