# This file uses centimeters as units for non-parametric coordinates.

mtllib ShotGlass.mtl
g default
v 0.243311 0.041667 -0.243329
v -0.000009 0.041667 -0.344115
v -0.243327 0.041668 -0.243328
v -0.344113 0.041668 -0.000008
v -0.243327 0.041668 0.243312
v -0.000007 0.041668 0.344098
v 0.243313 0.041668 0.243312
v 0.344099 0.041668 -0.000008
v 0.486635 0.041668 -0.486648
v -0.000007 0.041668 -0.688222
v -0.486647 0.041668 -0.486648
v -0.688220 0.041668 -0.000008
v -0.486647 0.041668 0.486632
v -0.000007 0.041668 0.688205
v 0.486635 0.041668 0.486632
v 0.688206 0.041668 -0.000008
v 0.486635 0.161822 -0.486648
v -0.000007 0.161822 -0.688222
v -0.486647 0.161822 -0.486648
v -0.688220 0.161822 -0.000008
v -0.486647 0.161822 0.486632
v -0.000009 0.161822 0.688205
v 0.486631 0.161822 0.486632
v 0.688204 0.161822 -0.000008
v 0.450015 0.161822 -0.450036
v -0.000010 0.161822 -0.636442
v -0.450036 0.161822 -0.450034
v -0.636443 0.161822 -0.000008
v -0.450033 0.161822 0.450017
v -0.000006 0.161822 0.636426
v 0.450019 0.161822 0.450017
v 0.636427 0.161822 -0.000008
v -0.000007 0.041668 -0.000008
v -0.000007 0.161822 -0.000008
v 0.486635 0.161822 -0.486648
v -0.000007 0.161822 -0.688222
v -0.000010 0.161822 -0.636442
v 0.450015 0.161822 -0.450036
v -0.486647 0.161822 -0.486648
v -0.450036 0.161822 -0.450034
v -0.688220 0.161822 -0.000008
v -0.636443 0.161822 -0.000008
v -0.486647 0.161822 0.486632
v -0.450033 0.161822 0.450017
v -0.000009 0.161822 0.688205
v -0.000006 0.161822 0.636426
v 0.486631 0.161822 0.486632
v 0.450019 0.161822 0.450017
v 0.688204 0.161822 -0.000008
v 0.636427 0.161822 -0.000008
v 0.583237 1.148322 -0.583252
v -0.000006 1.148322 -0.824842
v -0.000009 1.148322 -0.762785
v 0.539349 1.148322 -0.539371
v -0.583253 1.148322 -0.583254
v -0.539375 1.148322 -0.539371
v -0.824839 1.148322 -0.000008
v -0.762782 1.148322 -0.000008
v -0.583247 1.148322 0.583232
v -0.539365 1.148322 0.539351
v -0.000009 1.148322 0.824812
v -0.000006 1.148322 0.762755
v 0.583226 1.148322 0.583229
v 0.539348 1.148322 0.539347
v 0.824814 1.148322 -0.000009
v 0.762760 1.148322 -0.000008
vt 0.555243 0.101007
vt 0.500000 0.078125
vt 0.444757 0.101007
vt 0.421875 0.156250
vt 0.444757 0.211493
vt 0.500000 0.234375
vt 0.555243 0.211493
vt 0.578125 0.156250
vt 0.610485 0.045765
vt 0.500000 0.000000
vt 0.389515 0.045765
vt 0.343750 0.156250
vt 0.389515 0.266735
vt 0.500000 0.312500
vt 0.610485 0.266735
vt 0.656250 0.156250
vt 0.375000 0.312500
vt 0.406250 0.312500
vt 0.437500 0.312500
vt 0.468750 0.312500
vt 0.500000 0.312500
vt 0.531250 0.312500
vt 0.562500 0.312500
vt 0.593750 0.312500
vt 0.625000 0.312500
vt 0.375000 0.688440
vt 0.406250 0.688440
vt 0.437500 0.688440
vt 0.468750 0.688440
vt 0.500000 0.688440
vt 0.531250 0.688440
vt 0.562500 0.688440
vt 0.593750 0.688440
vt 0.625000 0.688440
vt 0.610485 0.733265
vt 0.500000 0.687500
vt 0.389515 0.733265
vt 0.343750 0.843750
vt 0.389515 0.954235
vt 0.500000 1.000000
vt 0.610485 0.954235
vt 0.656250 0.843750
vt 0.555243 0.788507
vt 0.500000 0.765625
vt 0.444757 0.788507
vt 0.421875 0.843750
vt 0.444757 0.898993
vt 0.500000 0.921875
vt 0.555243 0.898993
vt 0.578125 0.843750
vt 0.500000 0.150000
vt 0.500000 0.837500
vt 0.610485 0.954235
vt 0.500000 1.000000
vt 0.500000 0.921875
vt 0.555243 0.898993
vt 0.389515 0.954235
vt 0.444757 0.898993
vt 0.343750 0.843750
vt 0.421875 0.843750
vt 0.389515 0.733265
vt 0.444757 0.788507
vt 0.500000 0.687500
vt 0.500000 0.765625
vt 0.610485 0.733265
vt 0.555243 0.788507
vt 0.656250 0.843750
vt 0.578125 0.843750
vt 0.610485 0.954235
vt 0.500000 1.000000
vt 0.500000 0.921875
vt 0.555243 0.898993
vt 0.389515 0.954235
vt 0.444757 0.898993
vt 0.343750 0.843750
vt 0.421875 0.843750
vt 0.389515 0.733265
vt 0.444757 0.788507
vt 0.500000 0.687500
vt 0.500000 0.765625
vt 0.610485 0.733265
vt 0.555243 0.788507
vt 0.656250 0.843750
vt 0.578125 0.843750
vn 0.000000 -1.000000 -0.000000
vn -0.000000 -1.000000 -0.000000
vn -0.000000 -1.000000 -0.000000
vn 0.000000 -1.000000 -0.000000
vn -0.000000 -1.000000 -0.000000
vn -0.000000 -1.000000 -0.000000
vn 0.000000 -1.000000 0.000000
vn 0.000000 -1.000000 0.000000
vn 0.000000 -1.000000 0.000000
vn 0.000000 -1.000000 0.000000
vn 0.000000 -1.000000 0.000000
vn 0.000000 -1.000000 0.000000
vn 0.000000 -1.000000 -0.000000
vn 0.000000 -1.000000 -0.000000
vn 0.000000 -1.000000 0.000000
vn 0.000000 -1.000000 0.000000
vn 0.382684 0.000000 -0.923879
vn 0.382684 0.000000 -0.923879
vn 0.382684 0.000000 -0.923879
vn 0.382684 0.000000 -0.923879
vn -0.382686 0.000000 -0.923879
vn -0.382686 0.000000 -0.923879
vn -0.382686 0.000000 -0.923879
vn -0.382686 0.000000 -0.923879
vn -0.923879 0.000000 -0.382685
vn -0.923879 0.000000 -0.382685
vn -0.923879 0.000000 -0.382685
vn -0.923879 0.000000 -0.382685
vn -0.923879 0.000000 0.382684
vn -0.923879 0.000000 0.382684
vn -0.923879 0.000000 0.382684
vn -0.923879 0.000000 0.382684
vn -0.382683 -0.000003 0.923880
vn -0.382683 -0.000003 0.923880
vn -0.382684 -0.000003 0.923880
vn -0.382684 -0.000003 0.923880
vn 0.382682 0.000008 0.923880
vn 0.382682 0.000008 0.923880
vn 0.382682 0.000008 0.923880
vn 0.382682 0.000008 0.923880
vn 0.923880 0.000022 0.382681
vn 0.923880 0.000022 0.382681
vn 0.923880 0.000022 0.382681
vn 0.923880 0.000022 0.382681
vn 0.923881 0.000009 -0.382679
vn 0.923881 0.000009 -0.382679
vn 0.923881 0.000009 -0.382679
vn 0.923881 0.000009 -0.382679
vn 0.000000 1.000000 0.000000
vn 0.000000 1.000000 -0.000000
vn 0.000000 1.000000 -0.000000
vn 0.000000 1.000000 0.000000
vn 0.000000 1.000000 -0.000000
vn 0.000000 1.000000 -0.000000
vn 0.000000 1.000000 0.000000
vn 0.000000 1.000000 0.000000
vn 0.000000 1.000000 -0.000000
vn 0.000000 1.000000 -0.000000
vn 0.000000 1.000000 0.000000
vn 0.000000 1.000000 0.000000
vn 0.000000 1.000000 0.000001
vn 0.000000 1.000000 0.000001
vn 0.000000 1.000000 -0.000000
vn 0.000000 1.000000 -0.000000
vn -0.000000 -1.000000 0.000000
vn -0.000000 1.000000 0.000001
vn 0.000000 1.000000 0.000000
vn 0.000000 1.000000 0.000000
vn 0.000000 1.000000 0.000000
vn 0.000000 1.000000 0.000000
vn 0.000000 1.000000 0.000000
vn 0.000000 1.000000 0.000000
vn 0.000000 1.000000 0.000000
vn 0.000000 1.000000 0.000000
vn 0.000000 0.000000 0.000000
vn 0.000000 0.000000 0.000000
vn 0.000000 0.000000 0.000000
vn 0.000000 0.000000 0.000000
vn 0.000000 0.000000 0.000000
vn 0.000000 0.000000 0.000000
vn 0.000000 0.000000 0.000000
vn 0.000000 0.000000 0.000000
vn 0.000000 0.000000 0.000000
vn 0.000000 0.000000 0.000000
vn 0.000000 0.000000 0.000000
vn 0.000000 0.000000 0.000000
vn 0.000000 0.000000 0.000000
vn 0.000000 0.000000 0.000000
vn 0.000000 0.000000 0.000000
vn 0.000000 0.000000 0.000000
vn 0.000000 0.000000 0.000000
vn 0.000000 0.000000 0.000000
vn 0.000000 0.000000 0.000000
vn 0.000000 0.000000 0.000000
vn 0.000000 0.000000 0.000000
vn 0.000000 0.000000 0.000000
vn 0.000000 0.000000 0.000000
vn 0.000000 0.000000 0.000000
vn 0.000000 0.000000 0.000000
vn 0.000000 0.000000 0.000000
vn 0.000000 0.000000 0.000000
vn 0.000000 0.000000 0.000000
vn 0.000000 0.000000 0.000000
vn 0.000000 0.000000 0.000000
vn 0.000000 0.000000 0.000000
vn 0.000000 0.000000 0.000000
vn 0.000000 0.000000 0.000000
vn 0.000000 0.000000 0.000000
vn 0.000000 0.000000 0.000000
vn 0.000000 0.000000 0.000000
vn 0.000000 0.000000 0.000000
vn 0.000000 0.000000 0.000000
vn 0.000000 0.000000 0.000000
vn 0.000000 0.000000 0.000000
vn 0.000000 0.000000 0.000000
vn 0.000000 0.000000 0.000000
vn 0.000000 0.000000 0.000000
vn 0.000000 0.000000 0.000000
vn 0.000000 0.000000 0.000000
vn 0.000000 0.000000 0.000000
vn 0.000000 0.000000 0.000000
vn 0.000000 0.000000 0.000000
vn 0.000000 0.000000 0.000000
vn 0.000000 0.000000 0.000000
vn 0.000000 0.000000 0.000000
vn 0.000000 0.000000 0.000000
vn 0.000000 0.000000 0.000000
vn 0.000000 0.000000 0.000000
vn 0.000000 0.000000 0.000000
vn 0.000000 0.000000 0.000000
vn 0.000000 0.000000 0.000000
vn 0.000000 0.000000 0.000000
vn 0.000000 0.000000 0.000000
vn 0.000000 0.000000 0.000000
vn 0.000000 0.000000 0.000000
vn 0.000000 0.000000 0.000000
vn 0.000000 0.000000 0.000000
vn 0.000000 0.000000 0.000000
vn 0.379592 -0.126913 -0.916408
vn 0.379592 -0.126913 -0.916408
vn 0.379592 -0.126913 -0.916408
vn 0.379592 -0.126913 -0.916408
vn -0.380036 0.117502 0.917478
vn -0.380036 0.117502 0.917478
vn -0.380036 0.117502 0.917478
vn -0.380036 0.117502 0.917478
vn -0.379590 -0.126914 -0.916408
vn -0.379590 -0.126914 -0.916408
vn -0.379590 -0.126914 -0.916408
vn -0.379590 -0.126914 -0.916408
vn 0.380035 0.117503 0.917478
vn 0.380035 0.117503 0.917478
vn 0.380035 0.117503 0.917478
vn 0.380035 0.117503 0.917478
vn -0.916409 -0.126913 -0.379588
vn -0.916409 -0.126913 -0.379588
vn -0.916409 -0.126913 -0.379588
vn -0.916409 -0.126913 -0.379588
vn 0.917481 0.117502 0.380029
vn 0.917481 0.117502 0.380029
vn 0.917481 0.117502 0.380029
vn 0.917481 0.117502 0.380029
vn -0.916407 -0.126910 0.379594
vn -0.916407 -0.126910 0.379594
vn -0.916407 -0.126910 0.379594
vn -0.916407 -0.126910 0.379594
vn 0.917476 0.117498 -0.380041
vn 0.917476 0.117498 -0.380041
vn 0.917476 0.117498 -0.380041
vn 0.917476 0.117498 -0.380041
vn -0.379586 -0.126904 0.916411
vn -0.379586 -0.126904 0.916411
vn -0.379586 -0.126904 0.916411
vn -0.379586 -0.126904 0.916411
vn 0.380029 0.117494 -0.917482
vn 0.380029 0.117494 -0.917482
vn 0.380029 0.117494 -0.917482
vn 0.380029 0.117494 -0.917482
vn 0.379589 -0.126902 0.916411
vn 0.379589 -0.126902 0.916411
vn 0.379589 -0.126902 0.916411
vn 0.379589 -0.126902 0.916411
vn -0.380035 0.117491 -0.917480
vn -0.380035 0.117491 -0.917480
vn -0.380035 0.117491 -0.917480
vn -0.380035 0.117491 -0.917480
vn 0.916410 -0.126902 0.379591
vn 0.916410 -0.126902 0.379591
vn 0.916410 -0.126902 0.379591
vn 0.916410 -0.126902 0.379591
vn -0.917479 0.117493 -0.380037
vn -0.917479 0.117493 -0.380037
vn -0.917479 0.117493 -0.380037
vn -0.917479 0.117493 -0.380037
vn 0.916414 -0.126907 -0.379579
vn 0.916414 -0.126907 -0.379579
vn 0.916414 -0.126907 -0.379579
vn 0.916414 -0.126907 -0.379579
vn -0.917479 0.117496 0.380036
vn -0.917479 0.117496 0.380036
vn -0.917479 0.117496 0.380036
vn -0.917479 0.117496 0.380036
s 1
g pCylinder1
usemtl initialShadingGroup
f 1/1/1 2/2/2 10/10/3 9/9/4
f 2/2/2 3/3/5 11/11/6 10/10/3
f 3/3/5 4/4/7 12/12/8 11/11/6
f 4/4/7 5/5/9 13/13/10 12/12/8
f 5/5/9 6/6/11 14/14/12 13/13/10
f 6/6/11 7/7/13 15/15/14 14/14/12
f 7/7/13 8/8/15 16/16/16 15/15/14
f 8/8/15 1/1/1 9/9/4 16/16/16
s off
f 9/17/17 10/18/18 18/27/19 17/26/20
f 10/18/21 11/19/22 19/28/23 18/27/24
f 11/19/25 12/20/26 20/29/27 19/28/28
f 12/20/29 13/21/30 21/30/31 20/29/32
f 13/21/33 14/22/34 22/31/35 21/30/36
f 14/22/37 15/23/38 23/32/39 22/31/40
f 15/23/41 16/24/42 24/33/43 23/32/44
f 16/24/45 9/25/46 17/34/47 24/33/48
s 2
f 51/69/49 52/70/50 53/71/51 54/72/52
f 52/70/50 55/73/53 56/74/54 53/71/51
f 55/73/53 57/75/55 58/76/56 56/74/54
f 57/75/55 59/77/57 60/78/58 58/76/56
f 59/77/57 61/79/59 62/80/60 60/78/58
f 61/79/59 63/81/61 64/82/62 62/80/60
f 63/81/61 65/83/63 66/84/64 64/82/62
f 65/83/63 51/69/49 54/72/52 66/84/64
s 1
f 2/2/2 1/1/1 33/51/65
f 3/3/5 2/2/2 33/51/65
f 4/4/7 3/3/5 33/51/65
f 5/5/9 4/4/7 33/51/65
f 6/6/11 5/5/9 33/51/65
f 7/7/13 6/6/11 33/51/65
f 8/8/15 7/7/13 33/51/65
f 1/1/1 8/8/15 33/51/65
s 3
f 25/49/66 26/48/67 34/52/68
f 26/48/67 27/47/69 34/52/68
f 27/47/69 28/46/70 34/52/68
f 28/46/70 29/45/71 34/52/68
f 29/45/71 30/44/72 34/52/68
f 30/44/72 31/43/73 34/52/68
f 31/43/73 32/50/74 34/52/68
f 32/50/74 25/49/66 34/52/68
s off
f 17/41/75 18/40/76 36/54/77 35/53/78
f 26/48/79 25/49/80 38/56/81 37/55/82
f 18/40/83 19/39/84 39/57/85 36/54/86
f 27/47/87 26/48/88 37/55/89 40/58/90
f 19/39/91 20/38/92 41/59/93 39/57/94
f 28/46/95 27/47/96 40/58/97 42/60/98
f 20/38/99 21/37/100 43/61/101 41/59/102
f 29/45/103 28/46/104 42/60/105 44/62/106
f 21/37/107 22/36/108 45/63/109 43/61/110
f 30/44/111 29/45/112 44/62/113 46/64/114
f 22/36/115 23/35/116 47/65/117 45/63/118
f 31/43/119 30/44/120 46/64/121 48/66/122
f 23/35/123 24/42/124 49/67/125 47/65/126
f 32/50/127 31/43/128 48/66/129 50/68/130
f 24/42/131 17/41/132 35/53/133 49/67/134
f 25/49/135 32/50/136 50/68/137 38/56/138
f 35/53/139 36/54/140 52/70/141 51/69/142
f 37/55/143 38/56/144 54/72/145 53/71/146
f 36/54/147 39/57/148 55/73/149 52/70/150
f 40/58/151 37/55/152 53/71/153 56/74/154
f 39/57/155 41/59/156 57/75/157 55/73/158
f 42/60/159 40/58/160 56/74/161 58/76/162
f 41/59/163 43/61/164 59/77/165 57/75/166
f 44/62/167 42/60/168 58/76/169 60/78/170
f 43/61/171 45/63/172 61/79/173 59/77/174
f 46/64/175 44/62/176 60/78/177 62/80/178
f 45/63/179 47/65/180 63/81/181 61/79/182
f 48/66/183 46/64/184 62/80/185 64/82/186
f 47/65/187 49/67/188 65/83/189 63/81/190
f 50/68/191 48/66/192 64/82/193 66/84/194
f 49/67/195 35/53/196 51/69/197 65/83/198
f 38/56/199 50/68/200 66/84/201 54/72/202
